# xmcd CD database file
#
# Track frame offsets:
#	150
#	23234
#	43954
#	66216
#	87690
#	116482
#	140395
#	161596
#	191863
#	215592
#
# Disc length: 3158 seconds
#
# Revision: 0
# Processed by: cddbd v1.5.2PL0 Copyright (c) Steve Scherf et al.
# Submitted via: CDex 1.70beta2
#
DISCID=980c540a
DTITLE=Trinity - Paris Eyes
DYEAR=2010
DGENRE=Jazz
TTITLE0=Puttin’ On The Ritz
TTITLE1=Paris Eyes
TTITLE2=Reboppin’
TTITLE3=Just Friends
TTITLE4=Old Folks
TTITLE5=Driftin’
TTITLE6=Luny Tune
TTITLE7=Strange Mood
TTITLE8=The Preacher
TTITLE9=Underbart Är Kort
EXTD=YEAR: 2010
EXTT0=
EXTT1=
EXTT2=
EXTT3=
EXTT4=
EXTT5=
EXTT6=
EXTT7=
EXTT8=
EXTT9=
PLAYORDER=
